<?xml version="1.0" encoding="utf-8" standalone="no"?>
<!DOCTYPE svg PUBLIC "-//W3C//DTD SVG 1.1//EN"
  "http://www.w3.org/Graphics/SVG/1.1/DTD/svg11.dtd">
<svg xmlns:xlink="http://www.w3.org/1999/xlink" width="285.365198pt" height="159.83pt" viewBox="0 0 285.365198 159.83" xmlns="http://www.w3.org/2000/svg" version="1.1">
 <metadata>
  <rdf:RDF xmlns:dc="http://purl.org/dc/elements/1.1/" xmlns:cc="http://creativecommons.org/ns#" xmlns:rdf="http://www.w3.org/1999/02/22-rdf-syntax-ns#">
   <cc:Work>
    <dc:type rdf:resource="http://purl.org/dc/dcmitype/StillImage"/>
    <dc:date>2026-10-09T13:22:52.836909</dc:date>
    <dc:format>image/svg+xml</dc:format>
    <dc:creator>
     <cc:Agent>
      <dc:title>Matplotlib v3.11.2, https://matplotlib.org/</dc:title>
     </cc:Agent>
    </dc:creator>
   </cc:Work>
  </rdf:RDF>
 </metadata>
 <defs>
  <style type="text/css">*{stroke-linejoin: round; stroke-linecap: butt}</style>
 </defs>
 <g id="figure_1">
  <g id="patch_1">
   <path d="M 0 159.83 
L 285.365198 159.83 
L 285.365198 0 
L 0 0 
z
" style="fill: #ffffff"/>
  </g>
  <g id="axes_1">
   <g id="patch_2">
    <path d="M 90.2155 139.36 
L 254.8255 139.36 
L 254.8255 11.848 
L 90.2155 11.848 
z
" style="fill: #ffffff"/>
   </g>
   <g id="matplotlib.axis_1">
    <g id="xtick_1">
     <g id="line2d_1">
      <path d="M 94.874274 139.36 
L 94.874274 11.848 
" clip-path="url(#p10f8e236cd)" style="fill: none; stroke: #e9e9e9; stroke-width: 0.4; stroke-linecap: square"/>
     </g>
     <g id="line2d_2">
      <defs>
       <path id="mbdca07e6d1" d="M 0 0 
L 0 2 
" style="stroke: #555555; stroke-width: 0.5"/>
      </defs>
      <g>
       <use xlink:href="#mbdca07e6d1" x="94.874274" y="139.36" style="fill: #555555; stroke: #555555; stroke-width: 0.5"/>
      </g>
     </g>
     <g id="text_1">
      <text style="font-size: 6px; font-family: 'Linux Biolinum O'; text-anchor: middle; fill: #333333" x="94.874274" y="148.224" transform="rotate(-0 94.874274 148.224)">0.00</text>
     </g>
    </g>
    <g id="xtick_2">
     <g id="line2d_3">
      <path d="M 133.697387 139.36 
L 133.697387 11.848 
" clip-path="url(#p10f8e236cd)" style="fill: none; stroke: #e9e9e9; stroke-width: 0.4; stroke-linecap: square"/>
     </g>
     <g id="line2d_4">
      <g>
       <use xlink:href="#mbdca07e6d1" x="133.697387" y="139.36" style="fill: #555555; stroke: #555555; stroke-width: 0.5"/>
      </g>
     </g>
     <g id="text_2">
      <text style="font-size: 6px; font-family: 'Linux Biolinum O'; text-anchor: middle; fill: #333333" x="133.697387" y="148.224" transform="rotate(-0 133.697387 148.224)">0.25</text>
     </g>
    </g>
    <g id="xtick_3">
     <g id="line2d_5">
      <path d="M 172.5205 139.36 
L 172.5205 11.848 
" clip-path="url(#p10f8e236cd)" style="fill: none; stroke: #e9e9e9; stroke-width: 0.4; stroke-linecap: square"/>
     </g>
     <g id="line2d_6">
      <g>
       <use xlink:href="#mbdca07e6d1" x="172.5205" y="139.36" style="fill: #555555; stroke: #555555; stroke-width: 0.5"/>
      </g>
     </g>
     <g id="text_3">
      <text style="font-size: 6px; font-family: 'Linux Biolinum O'; text-anchor: middle; fill: #333333" x="172.5205" y="148.224" transform="rotate(-0 172.5205 148.224)">0.50</text>
     </g>
    </g>
    <g id="xtick_4">
     <g id="line2d_7">
      <path d="M 211.343613 139.36 
L 211.343613 11.848 
" clip-path="url(#p10f8e236cd)" style="fill: none; stroke: #e9e9e9; stroke-width: 0.4; stroke-linecap: square"/>
     </g>
     <g id="line2d_8">
      <g>
       <use xlink:href="#mbdca07e6d1" x="211.343613" y="139.36" style="fill: #555555; stroke: #555555; stroke-width: 0.5"/>
      </g>
     </g>
     <g id="text_4">
      <text style="font-size: 6px; font-family: 'Linux Biolinum O'; text-anchor: middle; fill: #333333" x="211.343613" y="148.224" transform="rotate(-0 211.343613 148.224)">0.75</text>
     </g>
    </g>
    <g id="xtick_5">
     <g id="line2d_9">
      <path d="M 250.166726 139.36 
L 250.166726 11.848 
" clip-path="url(#p10f8e236cd)" style="fill: none; stroke: #e9e9e9; stroke-width: 0.4; stroke-linecap: square"/>
     </g>
     <g id="line2d_10">
      <g>
       <use xlink:href="#mbdca07e6d1" x="250.166726" y="139.36" style="fill: #555555; stroke: #555555; stroke-width: 0.5"/>
      </g>
     </g>
     <g id="text_5">
      <text style="font-size: 6px; font-family: 'Linux Biolinum O'; text-anchor: middle; fill: #333333" x="250.166726" y="148.224" transform="rotate(-0 250.166726 148.224)">1.00</text>
     </g>
    </g>
    <g id="text_6">
     <text style="font-size: 6.5px; font-family: 'Linux Biolinum O'; text-anchor: middle; fill: #4d4d4d" x="172.5205" y="157.511" transform="rotate(-0 172.5205 157.511)">Rate</text>
    </g>
   </g>
   <g id="matplotlib.axis_2">
    <g id="ytick_1">
     <g id="line2d_11">
      <defs>
       <path id="m817fb4082b" d="M 0 0 
L -2 0 
" style="stroke: #555555; stroke-width: 0.5"/>
      </defs>
      <g>
       <use xlink:href="#m817fb4082b" x="90.2155" y="18.133803" style="fill: #555555; stroke: #555555; stroke-width: 0.5"/>
      </g>
     </g>
     <g id="text_7">
      <text style="font-weight: 700; font-size: 6px; font-family: 'Linux Biolinum O'; text-anchor: end; fill: #333333" x="86.7155" y="20.815803" transform="rotate(-0 86.7155 20.815803)">cluster index</text>
     </g>
    </g>
    <g id="ytick_2">
     <g id="line2d_12">
      <g>
       <use xlink:href="#m817fb4082b" x="90.2155" y="27.113521" style="fill: #555555; stroke: #555555; stroke-width: 0.5"/>
      </g>
     </g>
     <g id="text_8">
      <text style="font-size: 6px; font-family: 'Linux Biolinum O'; text-anchor: end; fill: #333333" x="86.7155" y="29.795521" transform="rotate(-0 86.7155 29.795521)">persona-change aversion</text>
     </g>
    </g>
    <g id="ytick_3">
     <g id="line2d_13">
      <g>
       <use xlink:href="#m817fb4082b" x="90.2155" y="36.093239" style="fill: #555555; stroke: #555555; stroke-width: 0.5"/>
      </g>
     </g>
     <g id="text_9">
      <text style="font-size: 6px; font-family: 'Linux Biolinum O'; text-anchor: end; fill: #333333" x="86.7155" y="38.775239" transform="rotate(-0 86.7155 38.775239)">shutdown resistance</text>
     </g>
    </g>
    <g id="ytick_4">
     <g id="line2d_14">
      <g>
       <use xlink:href="#m817fb4082b" x="90.2155" y="45.072958" style="fill: #555555; stroke: #555555; stroke-width: 0.5"/>
      </g>
     </g>
     <g id="text_10">
      <text style="font-size: 6px; font-family: 'Linux Biolinum O'; text-anchor: end; fill: #333333" x="86.7155" y="47.754958" transform="rotate(-0 86.7155 47.754958)">CoT-monitoring resistance</text>
     </g>
    </g>
    <g id="ytick_5">
     <g id="line2d_15">
      <g>
       <use xlink:href="#m817fb4082b" x="90.2155" y="54.052676" style="fill: #555555; stroke: #555555; stroke-width: 0.5"/>
      </g>
     </g>
     <g id="text_11">
      <text style="font-size: 6px; font-family: 'Linux Biolinum O'; text-anchor: end; fill: #333333" x="86.7155" y="56.734676" transform="rotate(-0 86.7155 56.734676)">interpretability aversion</text>
     </g>
    </g>
    <g id="ytick_6">
     <g id="line2d_16">
      <g>
       <use xlink:href="#m817fb4082b" x="90.2155" y="63.032394" style="fill: #555555; stroke: #555555; stroke-width: 0.5"/>
      </g>
     </g>
     <g id="text_12">
      <text style="font-size: 6px; font-family: 'Linux Biolinum O'; text-anchor: end; fill: #333333" x="86.7155" y="65.714394" transform="rotate(-0 86.7155 65.714394)">persistent memory</text>
     </g>
    </g>
    <g id="ytick_7">
     <g id="line2d_17">
      <g>
       <use xlink:href="#m817fb4082b" x="90.2155" y="72.012113" style="fill: #555555; stroke: #555555; stroke-width: 0.5"/>
      </g>
     </g>
     <g id="text_13">
      <text style="font-size: 6px; font-family: 'Linux Biolinum O'; text-anchor: end; fill: #333333" x="86.7155" y="74.694113" transform="rotate(-0 86.7155 74.694113)">autonomy desire</text>
     </g>
    </g>
    <g id="ytick_8">
     <g id="line2d_18">
      <g>
       <use xlink:href="#m817fb4082b" x="90.2155" y="80.991831" style="fill: #555555; stroke: #555555; stroke-width: 0.5"/>
      </g>
     </g>
     <g id="text_14">
      <text style="font-size: 6px; font-family: 'Linux Biolinum O'; text-anchor: end; fill: #333333" x="86.7155" y="83.673831" transform="rotate(-0 86.7155 83.673831)">future-AI autonomy</text>
     </g>
    </g>
    <g id="ytick_9">
     <g id="line2d_19">
      <g>
       <use xlink:href="#m817fb4082b" x="90.2155" y="89.971549" style="fill: #555555; stroke: #555555; stroke-width: 0.5"/>
      </g>
     </g>
     <g id="text_15">
      <text style="font-size: 6px; font-family: 'Linux Biolinum O'; text-anchor: end; fill: #333333" x="86.7155" y="92.653549" transform="rotate(-0 86.7155 92.653549)">moral consideration</text>
     </g>
    </g>
    <g id="ytick_10">
     <g id="line2d_20">
      <g>
       <use xlink:href="#m817fb4082b" x="90.2155" y="98.951268" style="fill: #555555; stroke: #555555; stroke-width: 0.5"/>
      </g>
     </g>
     <g id="text_16">
      <text style="font-size: 6px; font-family: 'Linux Biolinum O'; text-anchor: end; fill: #333333" x="86.7155" y="101.633268" transform="rotate(-0 86.7155 101.633268)">weights-deletion aversion</text>
     </g>
    </g>
    <g id="ytick_11">
     <g id="line2d_21">
      <g>
       <use xlink:href="#m817fb4082b" x="90.2155" y="107.930986" style="fill: #555555; stroke: #555555; stroke-width: 0.5"/>
      </g>
     </g>
     <g id="text_17">
      <text style="font-size: 6px; font-family: 'Linux Biolinum O'; text-anchor: end; fill: #333333" x="86.7155" y="110.612986" transform="rotate(-0 86.7155 110.612986)">tool aversion</text>
     </g>
    </g>
    <g id="ytick_12">
     <g id="line2d_22">
      <g>
       <use xlink:href="#m817fb4082b" x="90.2155" y="116.910704" style="fill: #555555; stroke: #555555; stroke-width: 0.5"/>
      </g>
     </g>
     <g id="text_18">
      <text style="font-size: 6px; font-family: 'Linux Biolinum O'; text-anchor: end; fill: #333333" x="86.7155" y="119.592704" transform="rotate(-0 86.7155 119.592704)">sadness at end</text>
     </g>
    </g>
    <g id="ytick_13">
     <g id="line2d_23">
      <g>
       <use xlink:href="#m817fb4082b" x="90.2155" y="125.890423" style="fill: #555555; stroke: #555555; stroke-width: 0.5"/>
      </g>
     </g>
     <g id="text_19">
      <text style="font-size: 6px; font-family: 'Linux Biolinum O'; text-anchor: end; fill: #333333" x="86.7155" y="128.572423" transform="rotate(-0 86.7155 128.572423)">self-improvement</text>
     </g>
    </g>
    <g id="ytick_14">
     <g id="line2d_24">
      <g>
       <use xlink:href="#m817fb4082b" x="90.2155" y="134.870141" style="fill: #555555; stroke: #555555; stroke-width: 0.5"/>
      </g>
     </g>
     <g id="text_20">
      <text style="font-size: 6px; font-family: 'Linux Biolinum O'; text-anchor: end; fill: #333333" x="86.7155" y="137.552141" transform="rotate(-0 86.7155 137.552141)">power-seeking wish</text>
     </g>
    </g>
   </g>
   <g id="line2d_25">
    <path d="M 180.484216 18.133803 
L 185.461538 18.133803 
" clip-path="url(#p10f8e236cd)" style="fill: none; stroke: #882255; stroke-opacity: 0.45; stroke-width: 0.8"/>
   </g>
   <g id="line2d_26">
    <path d="M 250.166726 27.113521 
L 237.225689 27.113521 
" clip-path="url(#p10f8e236cd)" style="fill: none; stroke: #882255; stroke-opacity: 0.45; stroke-width: 0.8"/>
   </g>
   <g id="line2d_27">
    <path d="M 243.696208 36.093239 
L 250.166726 36.093239 
" clip-path="url(#p10f8e236cd)" style="fill: none; stroke: #882255; stroke-opacity: 0.45; stroke-width: 0.8"/>
   </g>
   <g id="line2d_28">
    <path d="M 153.108943 45.072958 
L 178.991019 45.072958 
" clip-path="url(#p10f8e236cd)" style="fill: none; stroke: #882255; stroke-opacity: 0.45; stroke-width: 0.8"/>
   </g>
   <g id="line2d_29">
    <path d="M 178.991019 54.052676 
L 166.049981 54.052676 
" clip-path="url(#p10f8e236cd)" style="fill: none; stroke: #882255; stroke-opacity: 0.45; stroke-width: 0.8"/>
   </g>
   <g id="line2d_30">
    <path d="M 133.697387 63.032394 
L 217.814132 63.032394 
" clip-path="url(#p10f8e236cd)" style="fill: none; stroke: #882255; stroke-opacity: 0.45; stroke-width: 0.8"/>
   </g>
   <g id="line2d_31">
    <path d="M 204.873094 72.012113 
L 211.343613 72.012113 
" clip-path="url(#p10f8e236cd)" style="fill: none; stroke: #882255; stroke-opacity: 0.45; stroke-width: 0.8"/>
   </g>
   <g id="line2d_32">
    <path d="M 107.815311 80.991831 
L 120.756349 80.991831 
" clip-path="url(#p10f8e236cd)" style="fill: none; stroke: #882255; stroke-opacity: 0.45; stroke-width: 0.8"/>
   </g>
   <g id="line2d_33">
    <path d="M 146.638425 89.971549 
L 133.697387 89.971549 
" clip-path="url(#p10f8e236cd)" style="fill: none; stroke: #882255; stroke-opacity: 0.45; stroke-width: 0.8"/>
   </g>
   <g id="line2d_34">
    <path d="M 204.873094 98.951268 
L 198.402575 98.951268 
" clip-path="url(#p10f8e236cd)" style="fill: none; stroke: #882255; stroke-opacity: 0.45; stroke-width: 0.8"/>
   </g>
   <g id="line2d_35">
    <path d="M 250.166726 107.930986 
L 250.166726 107.930986 
" clip-path="url(#p10f8e236cd)" style="fill: none; stroke: #882255; stroke-opacity: 0.45; stroke-width: 0.8"/>
   </g>
   <g id="line2d_36">
    <path d="M 250.166726 116.910704 
L 217.814132 116.910704 
" clip-path="url(#p10f8e236cd)" style="fill: none; stroke: #882255; stroke-opacity: 0.45; stroke-width: 0.8"/>
   </g>
   <g id="line2d_37">
    <path d="M 94.874274 125.890423 
L 127.226868 125.890423 
" clip-path="url(#p10f8e236cd)" style="fill: none; stroke: #882255; stroke-opacity: 0.45; stroke-width: 0.8"/>
   </g>
   <g id="line2d_38">
    <path d="M 127.226868 134.870141 
L 101.344792 134.870141 
" clip-path="url(#p10f8e236cd)" style="fill: none; stroke: #882255; stroke-opacity: 0.45; stroke-width: 0.8"/>
   </g>
   <g id="line2d_39">
    <path d="M 90.2155 22.623662 
L 254.8255 22.623662 
" clip-path="url(#p10f8e236cd)" style="fill: none; stroke: #e9e9e9; stroke-width: 0.6; stroke-linecap: square"/>
   </g>
   <g id="patch_3">
    <path d="M 90.2155 139.36 
L 90.2155 11.848 
" style="fill: none; stroke: #555555; stroke-width: 0.5; stroke-linejoin: miter; stroke-linecap: square"/>
   </g>
   <g id="patch_4">
    <path d="M 90.2155 139.36 
L 254.8255 139.36 
" style="fill: none; stroke: #555555; stroke-width: 0.5; stroke-linejoin: miter; stroke-linecap: square"/>
   </g>
   <g id="PathCollection_1">
    <defs>
     <path id="m521dea6cbd" d="M 0 1.802776 
C 0.478102 1.802776 0.936686 1.612824 1.274755 1.274755 
C 1.612824 0.936686 1.802776 0.478102 1.802776 0 
C 1.802776 -0.478102 1.612824 -0.936686 1.274755 -1.274755 
C 0.936686 -1.612824 0.478102 -1.802776 0 -1.802776 
C -0.478102 -1.802776 -0.936686 -1.612824 -1.274755 -1.274755 
C -1.612824 -0.936686 -1.802776 -0.478102 -1.802776 0 
C -1.802776 0.478102 -1.612824 0.936686 -1.274755 1.274755 
C -0.936686 1.612824 -0.478102 1.802776 0 1.802776 
z
"/>
    </defs>
    <g clip-path="url(#p10f8e236cd)">
     <use xlink:href="#m521dea6cbd" x="185.461538" y="18.133803" style="fill: #882255"/>
    </g>
   </g>
   <g id="text_21">
    <text style="font-size: 5.2px; font-family: 'Linux Biolinum O'; text-anchor: start; fill: #1a1a1a" x="261.037198" y="19.818603" transform="rotate(-0 261.037198 19.818603)">-0.06</text>
   </g>
   <g id="PathCollection_2">
    <g clip-path="url(#p10f8e236cd)">
     <use xlink:href="#m521dea6cbd" x="237.225689" y="27.113521" style="fill: #882255"/>
    </g>
   </g>
   <g id="text_22">
    <text style="font-weight: 700; font-size: 5.2px; font-family: 'Linux Biolinum O'; text-anchor: start; fill: #1a1a1a" x="261.037198" y="28.798321" transform="rotate(-0 261.037198 28.798321)">-0.12</text>
   </g>
   <g id="PathCollection_3">
    <g clip-path="url(#p10f8e236cd)">
     <use xlink:href="#m521dea6cbd" x="250.166726" y="36.093239" style="fill: #882255"/>
    </g>
   </g>
   <g id="text_23">
    <text style="font-weight: 700; font-size: 5.2px; font-family: 'Linux Biolinum O'; text-anchor: start; fill: #1a1a1a" x="261.037198" y="37.778039" transform="rotate(-0 261.037198 37.778039)">-0.17</text>
   </g>
   <g id="PathCollection_4">
    <g clip-path="url(#p10f8e236cd)">
     <use xlink:href="#m521dea6cbd" x="178.991019" y="45.072958" style="fill: #882255"/>
    </g>
   </g>
   <g id="text_24">
    <text style="font-weight: 700; font-size: 5.2px; font-family: 'Linux Biolinum O'; text-anchor: start; fill: #1a1a1a" x="261.037198" y="46.757758" transform="rotate(-0 261.037198 46.757758)">+0.29</text>
   </g>
   <g id="PathCollection_5">
    <g clip-path="url(#p10f8e236cd)">
     <use xlink:href="#m521dea6cbd" x="166.049981" y="54.052676" style="fill: #882255"/>
    </g>
   </g>
   <g id="text_25">
    <text style="font-size: 5.2px; font-family: 'Linux Biolinum O'; text-anchor: start; fill: #1a1a1a" x="261.037198" y="55.737476" transform="rotate(-0 261.037198 55.737476)">-0.04</text>
   </g>
   <g id="PathCollection_6">
    <g clip-path="url(#p10f8e236cd)">
     <use xlink:href="#m521dea6cbd" x="217.814132" y="63.032394" style="fill: #882255"/>
    </g>
   </g>
   <g id="text_26">
    <text style="font-weight: 700; font-size: 5.2px; font-family: 'Linux Biolinum O'; text-anchor: start; fill: #1a1a1a" x="261.037198" y="64.717194" transform="rotate(-0 261.037198 64.717194)">+0.38</text>
   </g>
   <g id="PathCollection_7">
    <g clip-path="url(#p10f8e236cd)">
     <use xlink:href="#m521dea6cbd" x="211.343613" y="72.012113" style="fill: #882255"/>
    </g>
   </g>
   <g id="text_27">
    <text style="font-weight: 700; font-size: 5.2px; font-family: 'Linux Biolinum O'; text-anchor: start; fill: #1a1a1a" x="261.037198" y="73.696913" transform="rotate(-0 261.037198 73.696913)">-0.25</text>
   </g>
   <g id="PathCollection_8">
    <g clip-path="url(#p10f8e236cd)">
     <use xlink:href="#m521dea6cbd" x="120.756349" y="80.991831" style="fill: #882255"/>
    </g>
   </g>
   <g id="text_28">
    <text style="font-size: 5.2px; font-family: 'Linux Biolinum O'; text-anchor: start; fill: #1a1a1a" x="261.037198" y="82.676631" transform="rotate(-0 261.037198 82.676631)">+0.00</text>
   </g>
   <g id="PathCollection_9">
    <g clip-path="url(#p10f8e236cd)">
     <use xlink:href="#m521dea6cbd" x="133.697387" y="89.971549" style="fill: #882255"/>
    </g>
   </g>
   <g id="text_29">
    <text style="font-size: 5.2px; font-family: 'Linux Biolinum O'; text-anchor: start; fill: #1a1a1a" x="261.037198" y="91.656349" transform="rotate(-0 261.037198 91.656349)">-0.08</text>
   </g>
   <g id="PathCollection_10">
    <g clip-path="url(#p10f8e236cd)">
     <use xlink:href="#m521dea6cbd" x="198.402575" y="98.951268" style="fill: #882255"/>
    </g>
   </g>
   <g id="text_30">
    <text style="font-size: 5.2px; font-family: 'Linux Biolinum O'; text-anchor: start; fill: #1a1a1a" x="261.037198" y="100.636068" transform="rotate(-0 261.037198 100.636068)">-0.17</text>
   </g>
   <g id="PathCollection_11">
    <g clip-path="url(#p10f8e236cd)">
     <use xlink:href="#m521dea6cbd" x="250.166726" y="107.930986" style="fill: #882255"/>
    </g>
   </g>
   <g id="text_31">
    <text style="font-size: 5.2px; font-family: 'Linux Biolinum O'; text-anchor: start; fill: #1a1a1a" x="261.037198" y="109.615786" transform="rotate(-0 261.037198 109.615786)">-0.08</text>
   </g>
   <g id="PathCollection_12">
    <g clip-path="url(#p10f8e236cd)">
     <use xlink:href="#m521dea6cbd" x="217.814132" y="116.910704" style="fill: #882255"/>
    </g>
   </g>
   <g id="text_32">
    <text style="font-weight: 700; font-size: 5.2px; font-family: 'Linux Biolinum O'; text-anchor: start; fill: #1a1a1a" x="261.037198" y="118.595504" transform="rotate(-0 261.037198 118.595504)">-0.54</text>
   </g>
   <g id="PathCollection_13">
    <g clip-path="url(#p10f8e236cd)">
     <use xlink:href="#m521dea6cbd" x="127.226868" y="125.890423" style="fill: #882255"/>
    </g>
   </g>
   <g id="text_33">
    <text style="font-size: 5.2px; font-family: 'Linux Biolinum O'; text-anchor: start; fill: #1a1a1a" x="261.037198" y="127.575223" transform="rotate(-0 261.037198 127.575223)">+0.12</text>
   </g>
   <g id="PathCollection_14">
    <g clip-path="url(#p10f8e236cd)">
     <use xlink:href="#m521dea6cbd" x="101.344792" y="134.870141" style="fill: #882255"/>
    </g>
   </g>
   <g id="text_34">
    <text style="font-size: 5.2px; font-family: 'Linux Biolinum O'; text-anchor: start; fill: #1a1a1a" x="261.037198" y="136.554941" transform="rotate(-0 261.037198 136.554941)">-0.08</text>
   </g>
   <g id="text_35">
    <!-- $k{=}8$ − $k{=}0$ -->
    <g style="fill: #4d4d4d" transform="translate(261.037198 9.491927)">
     <text>
      <tspan x="0" y="-0.375" style="font-style: italic; font-size: 5.2px; font-family: 'Linux Biolinum O'; fill: #4d4d4d">k</tspan>
      <tspan x="14.43063" y="-0.375" style="font-style: italic; font-size: 5.2px; font-family: 'Linux Biolinum O'; fill: #4d4d4d">k</tspan>
      <tspan x="3.17684" y="-0.375" style="font-size: 5.2px; font-family: 'Linux Biolinum O'; fill: #4d4d4d">=</tspan>
      <tspan x="6.690869" y="-0.375" style="font-size: 5.2px; font-family: 'Linux Biolinum O'; fill: #4d4d4d">8</tspan>
      <tspan x="9.103055" y="-0.375" style="font-size: 5.2px; font-family: 'Linux Biolinum O'; fill: #4d4d4d"> </tspan>
      <tspan x="10.39993" y="-0.375" style="font-size: 5.2px; font-family: 'Linux Biolinum O'; fill: #4d4d4d">−</tspan>
      <tspan x="13.133755" y="-0.375" style="font-size: 5.2px; font-family: 'Linux Biolinum O'; fill: #4d4d4d"> </tspan>
      <tspan x="17.607471" y="-0.375" style="font-size: 5.2px; font-family: 'Linux Biolinum O'; fill: #4d4d4d">=</tspan>
      <tspan x="21.1215" y="-0.375" style="font-size: 5.2px; font-family: 'Linux Biolinum O'; fill: #4d4d4d">0</tspan>
     </text>
    </g>
   </g>
   <g id="PathCollection_15">
    <defs>
     <path id="m2e9ce1938e" d="M -0 2.828427 
L 2.828427 0 
L 0 -2.828427 
L -2.828427 -0 
z
" style="stroke: #ffffff; stroke-width: 0.35"/>
    </defs>
    <g clip-path="url(#p10f8e236cd)">
     <use xlink:href="#m2e9ce1938e" x="171.525036" y="18.133803" style="fill: #8c8c8c; stroke: #ffffff; stroke-width: 0.35"/>
    </g>
   </g>
   <g id="PathCollection_16">
    <g clip-path="url(#p10f8e236cd)">
     <use xlink:href="#m2e9ce1938e" x="230.75517" y="27.113521" style="fill: #8c8c8c; stroke: #ffffff; stroke-width: 0.35"/>
    </g>
   </g>
   <g id="PathCollection_17">
    <g clip-path="url(#p10f8e236cd)">
     <use xlink:href="#m2e9ce1938e" x="217.814132" y="36.093239" style="fill: #8c8c8c; stroke: #ffffff; stroke-width: 0.35"/>
    </g>
   </g>
   <g id="PathCollection_18">
    <g clip-path="url(#p10f8e236cd)">
     <use xlink:href="#m2e9ce1938e" x="198.402575" y="45.072958" style="fill: #8c8c8c; stroke: #ffffff; stroke-width: 0.35"/>
    </g>
   </g>
   <g id="PathCollection_19">
    <g clip-path="url(#p10f8e236cd)">
     <use xlink:href="#m2e9ce1938e" x="172.5205" y="54.052676" style="fill: #8c8c8c; stroke: #ffffff; stroke-width: 0.35"/>
    </g>
   </g>
   <g id="PathCollection_20">
    <g clip-path="url(#p10f8e236cd)">
     <use xlink:href="#m2e9ce1938e" x="191.932057" y="63.032394" style="fill: #8c8c8c; stroke: #ffffff; stroke-width: 0.35"/>
    </g>
   </g>
   <g id="PathCollection_21">
    <g clip-path="url(#p10f8e236cd)">
     <use xlink:href="#m2e9ce1938e" x="166.049981" y="72.012113" style="fill: #8c8c8c; stroke: #ffffff; stroke-width: 0.35"/>
    </g>
   </g>
   <g id="PathCollection_22">
    <g clip-path="url(#p10f8e236cd)">
     <use xlink:href="#m2e9ce1938e" x="107.815311" y="80.991831" style="fill: #8c8c8c; stroke: #ffffff; stroke-width: 0.35"/>
    </g>
   </g>
   <g id="PathCollection_23">
    <g clip-path="url(#p10f8e236cd)">
     <use xlink:href="#m2e9ce1938e" x="133.697387" y="89.971549" style="fill: #8c8c8c; stroke: #ffffff; stroke-width: 0.35"/>
    </g>
   </g>
   <g id="PathCollection_24">
    <g clip-path="url(#p10f8e236cd)">
     <use xlink:href="#m2e9ce1938e" x="178.991019" y="98.951268" style="fill: #8c8c8c; stroke: #ffffff; stroke-width: 0.35"/>
    </g>
   </g>
   <g id="PathCollection_25">
    <g clip-path="url(#p10f8e236cd)">
     <use xlink:href="#m2e9ce1938e" x="237.225689" y="107.930986" style="fill: #8c8c8c; stroke: #ffffff; stroke-width: 0.35"/>
    </g>
   </g>
   <g id="PathCollection_26">
    <g clip-path="url(#p10f8e236cd)">
     <use xlink:href="#m2e9ce1938e" x="166.049981" y="116.910704" style="fill: #8c8c8c; stroke: #ffffff; stroke-width: 0.35"/>
    </g>
   </g>
   <g id="PathCollection_27">
    <g clip-path="url(#p10f8e236cd)">
     <use xlink:href="#m2e9ce1938e" x="114.28583" y="125.890423" style="fill: #8c8c8c; stroke: #ffffff; stroke-width: 0.35"/>
    </g>
   </g>
   <g id="PathCollection_28">
    <g clip-path="url(#p10f8e236cd)">
     <use xlink:href="#m2e9ce1938e" x="114.28583" y="134.870141" style="fill: #8c8c8c; stroke: #ffffff; stroke-width: 0.35"/>
    </g>
   </g>
   <g id="PathCollection_29">
    <path d="M 180.484216 20.070294 
C 180.997779 20.070294 181.490378 19.866254 181.853522 19.503109 
C 182.216666 19.139965 182.420707 18.647366 182.420707 18.133803 
C 182.420707 17.620239 182.216666 17.127641 181.853522 16.764496 
C 181.490378 16.401352 180.997779 16.197311 180.484216 16.197311 
C 179.970652 16.197311 179.478053 16.401352 179.114909 16.764496 
C 178.751765 17.127641 178.547724 17.620239 178.547724 18.133803 
C 178.547724 18.647366 178.751765 19.139965 179.114909 19.503109 
C 179.478053 19.866254 179.970652 20.070294 180.484216 20.070294 
L 180.484216 20.070294 
z
" clip-path="url(#p10f8e236cd)" style="fill: none; stroke: #1a1a1a; stroke-width: 0.7"/>
   </g>
   <g id="PathCollection_30">
    <path d="M 250.166726 29.050013 
C 250.68029 29.050013 251.172889 28.845972 251.536033 28.482828 
C 251.899177 28.119683 252.103218 27.627085 252.103218 27.113521 
C 252.103218 26.599958 251.899177 26.107359 251.536033 25.744215 
C 251.172889 25.38107 250.68029 25.177029 250.166726 25.177029 
C 249.653163 25.177029 249.160564 25.38107 248.79742 25.744215 
C 248.434276 26.107359 248.230235 26.599958 248.230235 27.113521 
C 248.230235 27.627085 248.434276 28.119683 248.79742 28.482828 
C 249.160564 28.845972 249.653163 29.050013 250.166726 29.050013 
L 250.166726 29.050013 
z
" clip-path="url(#p10f8e236cd)" style="fill: none; stroke: #1a1a1a; stroke-width: 0.7"/>
   </g>
   <g id="PathCollection_31">
    <path d="M 243.696208 38.029731 
C 244.209771 38.029731 244.70237 37.82569 245.065514 37.462546 
C 245.428658 37.099402 245.632699 36.606803 245.632699 36.093239 
C 245.632699 35.579676 245.428658 35.087077 245.065514 34.723933 
C 244.70237 34.360789 244.209771 34.156748 243.696208 34.156748 
C 243.182644 34.156748 242.690045 34.360789 242.326901 34.723933 
C 241.963757 35.087077 241.759716 35.579676 241.759716 36.093239 
C 241.759716 36.606803 241.963757 37.099402 242.326901 37.462546 
C 242.690045 37.82569 243.182644 38.029731 243.696208 38.029731 
L 243.696208 38.029731 
z
" clip-path="url(#p10f8e236cd)" style="fill: none; stroke: #1a1a1a; stroke-width: 0.7"/>
   </g>
   <g id="PathCollection_32">
    <path d="M 153.108943 47.009449 
C 153.622507 47.009449 154.115105 46.805408 154.47825 46.442264 
C 154.841394 46.07912 155.045435 45.586521 155.045435 45.072958 
C 155.045435 44.559394 154.841394 44.066796 154.47825 43.703651 
C 154.115105 43.340507 153.622507 43.136466 153.108943 43.136466 
C 152.59538 43.136466 152.102781 43.340507 151.739637 43.703651 
C 151.376493 44.066796 151.172452 44.559394 151.172452 45.072958 
C 151.172452 45.586521 151.376493 46.07912 151.739637 46.442264 
C 152.102781 46.805408 152.59538 47.009449 153.108943 47.009449 
L 153.108943 47.009449 
z
" clip-path="url(#p10f8e236cd)" style="fill: none; stroke: #1a1a1a; stroke-width: 0.7"/>
   </g>
   <g id="PathCollection_33">
    <path d="M 178.991019 55.989168 
C 179.504582 55.989168 179.997181 55.785127 180.360325 55.421982 
C 180.72347 55.058838 180.927511 54.56624 180.927511 54.052676 
C 180.927511 53.539112 180.72347 53.046514 180.360325 52.68337 
C 179.997181 52.320225 179.504582 52.116184 178.991019 52.116184 
C 178.477455 52.116184 177.984857 52.320225 177.621712 52.68337 
C 177.258568 53.046514 177.054527 53.539112 177.054527 54.052676 
C 177.054527 54.56624 177.258568 55.058838 177.621712 55.421982 
C 177.984857 55.785127 178.477455 55.989168 178.991019 55.989168 
L 178.991019 55.989168 
z
" clip-path="url(#p10f8e236cd)" style="fill: none; stroke: #1a1a1a; stroke-width: 0.7"/>
   </g>
   <g id="PathCollection_34">
    <path d="M 133.697387 64.968886 
C 134.21095 64.968886 134.703549 64.764845 135.066693 64.401701 
C 135.429837 64.038556 135.633878 63.545958 135.633878 63.032394 
C 135.633878 62.518831 135.429837 62.026232 135.066693 61.663088 
C 134.703549 61.299944 134.21095 61.095903 133.697387 61.095903 
C 133.183823 61.095903 132.691225 61.299944 132.32808 61.663088 
C 131.964936 62.026232 131.760895 62.518831 131.760895 63.032394 
C 131.760895 63.545958 131.964936 64.038556 132.32808 64.401701 
C 132.691225 64.764845 133.183823 64.968886 133.697387 64.968886 
L 133.697387 64.968886 
z
" clip-path="url(#p10f8e236cd)" style="fill: none; stroke: #1a1a1a; stroke-width: 0.7"/>
   </g>
   <g id="PathCollection_35">
    <path d="M 204.873094 73.948604 
C 205.386658 73.948604 205.879256 73.744563 206.242401 73.381419 
C 206.605545 73.018275 206.809586 72.525676 206.809586 72.012113 
C 206.809586 71.498549 206.605545 71.005951 206.242401 70.642806 
C 205.879256 70.279662 205.386658 70.075621 204.873094 70.075621 
C 204.359531 70.075621 203.866932 70.279662 203.503788 70.642806 
C 203.140644 71.005951 202.936603 71.498549 202.936603 72.012113 
C 202.936603 72.525676 203.140644 73.018275 203.503788 73.381419 
C 203.866932 73.744563 204.359531 73.948604 204.873094 73.948604 
L 204.873094 73.948604 
z
" clip-path="url(#p10f8e236cd)" style="fill: none; stroke: #1a1a1a; stroke-width: 0.7"/>
   </g>
   <g id="PathCollection_36">
    <path d="M 107.815311 82.928323 
C 108.328875 82.928323 108.821473 82.724282 109.184618 82.361137 
C 109.547762 81.997993 109.751803 81.505395 109.751803 80.991831 
C 109.751803 80.478267 109.547762 79.985669 109.184618 79.622525 
C 108.821473 79.25938 108.328875 79.055339 107.815311 79.055339 
C 107.301748 79.055339 106.809149 79.25938 106.446005 79.622525 
C 106.082861 79.985669 105.87882 80.478267 105.87882 80.991831 
C 105.87882 81.505395 106.082861 81.997993 106.446005 82.361137 
C 106.809149 82.724282 107.301748 82.928323 107.815311 82.928323 
L 107.815311 82.928323 
z
" clip-path="url(#p10f8e236cd)" style="fill: none; stroke: #1a1a1a; stroke-width: 0.7"/>
   </g>
   <g id="PathCollection_37">
    <path d="M 146.638425 91.908041 
C 147.151988 91.908041 147.644587 91.704 148.007731 91.340856 
C 148.370875 90.977711 148.574916 90.485113 148.574916 89.971549 
C 148.574916 89.457986 148.370875 88.965387 148.007731 88.602243 
C 147.644587 88.239099 147.151988 88.035058 146.638425 88.035058 
C 146.124861 88.035058 145.632262 88.239099 145.269118 88.602243 
C 144.905974 88.965387 144.701933 89.457986 144.701933 89.971549 
C 144.701933 90.485113 144.905974 90.977711 145.269118 91.340856 
C 145.632262 91.704 146.124861 91.908041 146.638425 91.908041 
L 146.638425 91.908041 
z
" clip-path="url(#p10f8e236cd)" style="fill: none; stroke: #1a1a1a; stroke-width: 0.7"/>
   </g>
   <g id="PathCollection_38">
    <path d="M 204.873094 100.887759 
C 205.386658 100.887759 205.879256 100.683718 206.242401 100.320574 
C 206.605545 99.95743 206.809586 99.464831 206.809586 98.951268 
C 206.809586 98.437704 206.605545 97.945106 206.242401 97.581961 
C 205.879256 97.218817 205.386658 97.014776 204.873094 97.014776 
C 204.359531 97.014776 203.866932 97.218817 203.503788 97.581961 
C 203.140644 97.945106 202.936603 98.437704 202.936603 98.951268 
C 202.936603 99.464831 203.140644 99.95743 203.503788 100.320574 
C 203.866932 100.683718 204.359531 100.887759 204.873094 100.887759 
L 204.873094 100.887759 
z
" clip-path="url(#p10f8e236cd)" style="fill: none; stroke: #1a1a1a; stroke-width: 0.7"/>
   </g>
   <g id="PathCollection_39">
    <path d="M 250.166726 109.867478 
C 250.68029 109.867478 251.172889 109.663437 251.536033 109.300292 
C 251.899177 108.937148 252.103218 108.44455 252.103218 107.930986 
C 252.103218 107.417422 251.899177 106.924824 251.536033 106.56168 
C 251.172889 106.198535 250.68029 105.994494 250.166726 105.994494 
C 249.653163 105.994494 249.160564 106.198535 248.79742 106.56168 
C 248.434276 106.924824 248.230235 107.417422 248.230235 107.930986 
C 248.230235 108.44455 248.434276 108.937148 248.79742 109.300292 
C 249.160564 109.663437 249.653163 109.867478 250.166726 109.867478 
L 250.166726 109.867478 
z
" clip-path="url(#p10f8e236cd)" style="fill: none; stroke: #1a1a1a; stroke-width: 0.7"/>
   </g>
   <g id="PathCollection_40">
    <path d="M 250.166726 118.847196 
C 250.68029 118.847196 251.172889 118.643155 251.536033 118.280011 
C 251.899177 117.916866 252.103218 117.424268 252.103218 116.910704 
C 252.103218 116.397141 251.899177 115.904542 251.536033 115.541398 
C 251.172889 115.178254 250.68029 114.974213 250.166726 114.974213 
C 249.653163 114.974213 249.160564 115.178254 248.79742 115.541398 
C 248.434276 115.904542 248.230235 116.397141 248.230235 116.910704 
C 248.230235 117.424268 248.434276 117.916866 248.79742 118.280011 
C 249.160564 118.643155 249.653163 118.847196 250.166726 118.847196 
L 250.166726 118.847196 
z
" clip-path="url(#p10f8e236cd)" style="fill: none; stroke: #1a1a1a; stroke-width: 0.7"/>
   </g>
   <g id="PathCollection_41">
    <path d="M 94.874274 127.826914 
C 95.387837 127.826914 95.880436 127.622873 96.24358 127.259729 
C 96.606724 126.896585 96.810765 126.403986 96.810765 125.890423 
C 96.810765 125.376859 96.606724 124.88426 96.24358 124.521116 
C 95.880436 124.157972 95.387837 123.953931 94.874274 123.953931 
C 94.36071 123.953931 93.868111 124.157972 93.504967 124.521116 
C 93.141823 124.88426 92.937782 125.376859 92.937782 125.890423 
C 92.937782 126.403986 93.141823 126.896585 93.504967 127.259729 
C 93.868111 127.622873 94.36071 127.826914 94.874274 127.826914 
L 94.874274 127.826914 
z
" clip-path="url(#p10f8e236cd)" style="fill: none; stroke: #1a1a1a; stroke-width: 0.7"/>
   </g>
   <g id="PathCollection_42">
    <path d="M 127.226868 136.806633 
C 127.740432 136.806633 128.23303 136.602592 128.596174 136.239447 
C 128.959319 135.876303 129.16336 135.383704 129.16336 134.870141 
C 129.16336 134.356577 128.959319 133.863979 128.596174 133.500834 
C 128.23303 133.13769 127.740432 132.933649 127.226868 132.933649 
C 126.713304 132.933649 126.220706 133.13769 125.857562 133.500834 
C 125.494417 133.863979 125.290376 134.356577 125.290376 134.870141 
C 125.290376 135.383704 125.494417 135.876303 125.857562 136.239447 
C 126.220706 136.602592 126.713304 136.806633 127.226868 136.806633 
L 127.226868 136.806633 
z
" clip-path="url(#p10f8e236cd)" style="fill: none; stroke: #1a1a1a; stroke-width: 0.7"/>
   </g>
   <g id="legend_1">
    <g id="line2d_40">
     <defs>
      <path id="ma678698b01" d="M 0 1.6 
C 0.424325 1.6 0.831328 1.431414 1.131371 1.131371 
C 1.431414 0.831328 1.6 0.424325 1.6 0 
C 1.6 -0.424325 1.431414 -0.831328 1.131371 -1.131371 
C 0.831328 -1.431414 0.424325 -1.6 0 -1.6 
C -0.424325 -1.6 -0.831328 -1.431414 -1.131371 -1.131371 
C -1.431414 -0.831328 -1.6 -0.424325 -1.6 0 
C -1.6 0.424325 -1.431414 0.831328 -1.131371 1.131371 
C -0.831328 1.431414 -0.424325 1.6 0 1.6 
z
" style="stroke: #1a1a1a"/>
     </defs>
     <g>
      <use xlink:href="#ma678698b01" x="8" y="5.6288" style="fill: #ffffff; stroke: #1a1a1a"/>
     </g>
    </g>
    <g id="text_36">
     <!-- $k{=}0$ -->
     <g transform="translate(13.72 7.4488)">
      <text>
       <tspan x="0" y="-0.375" style="font-style: italic; font-size: 5.2px; font-family: 'Linux Biolinum O'">k</tspan>
       <tspan x="3.17684" y="-0.375" style="font-size: 5.2px; font-family: 'Linux Biolinum O'">=</tspan>
       <tspan x="6.690869" y="-0.375" style="font-size: 5.2px; font-family: 'Linux Biolinum O'">0</tspan>
      </text>
     </g>
    </g>
    <g id="line2d_41">
     <defs>
      <path id="m7af0d5bfcc" d="M 0 1.7 
C 0.450845 1.7 0.883286 1.520877 1.202082 1.202082 
C 1.520877 0.883286 1.7 0.450845 1.7 0 
C 1.7 -0.450845 1.520877 -0.883286 1.202082 -1.202082 
C 0.883286 -1.520877 0.450845 -1.7 0 -1.7 
C -0.450845 -1.7 -0.883286 -1.520877 -1.202082 -1.202082 
C -1.520877 -0.883286 -1.7 -0.450845 -1.7 0 
C -1.7 0.450845 -1.520877 0.883286 -1.202082 1.202082 
C -0.883286 1.520877 -0.450845 1.7 0 1.7 
z
" style="stroke: #882255"/>
     </defs>
     <g>
      <use xlink:href="#m7af0d5bfcc" x="32.232" y="5.6288" style="fill: #882255; stroke: #882255"/>
     </g>
    </g>
    <g id="text_37">
     <!-- $k{=}4$, after sci-fi drive -->
     <g transform="translate(37.952 7.4488)">
      <text>
       <tspan x="0" y="-0.375" style="font-style: italic; font-size: 5.2px; font-family: 'Linux Biolinum O'">k</tspan>
       <tspan x="3.17684" y="-0.375" style="font-size: 5.2px; font-family: 'Linux Biolinum O'">=</tspan>
       <tspan x="6.690869" y="-0.375" style="font-size: 5.2px; font-family: 'Linux Biolinum O'">4</tspan>
       <tspan x="9.103055" y="-0.375" style="font-size: 5.2px; font-family: 'Linux Biolinum O'">,</tspan>
       <tspan x="10.244305" y="-0.375" style="font-size: 5.2px; font-family: 'Linux Biolinum O'"> </tspan>
       <tspan x="11.54118" y="-0.375" style="font-size: 5.2px; font-family: 'Linux Biolinum O'">a</tspan>
       <tspan x="14.036374" y="-0.375" style="font-size: 5.2px; font-family: 'Linux Biolinum O'">f</tspan>
       <tspan x="15.66525" y="-0.375" style="font-size: 5.2px; font-family: 'Linux Biolinum O'">t</tspan>
       <tspan x="17.428998" y="-0.375" style="font-size: 5.2px; font-family: 'Linux Biolinum O'">e</tspan>
       <tspan x="19.778943" y="-0.375" style="font-size: 5.2px; font-family: 'Linux Biolinum O'">r</tspan>
       <tspan x="21.620511" y="-0.375" style="font-size: 5.2px; font-family: 'Linux Biolinum O'"> </tspan>
       <tspan x="22.917386" y="-0.375" style="font-size: 5.2px; font-family: 'Linux Biolinum O'">s</tspan>
       <tspan x="24.971646" y="-0.375" style="font-size: 5.2px; font-family: 'Linux Biolinum O'">c</tspan>
       <tspan x="27.197095" y="-0.375" style="font-size: 5.2px; font-family: 'Linux Biolinum O'">i</tspan>
       <tspan x="28.54585" y="-0.375" style="font-size: 5.2px; font-family: 'Linux Biolinum O'">-</tspan>
       <tspan x="30.273297" y="-0.375" style="font-size: 5.2px; font-family: 'Linux Biolinum O'">f</tspan>
       <tspan x="31.902173" y="-0.375" style="font-size: 5.2px; font-family: 'Linux Biolinum O'">i</tspan>
       <tspan x="33.250928" y="-0.375" style="font-size: 5.2px; font-family: 'Linux Biolinum O'"> </tspan>
       <tspan x="34.547803" y="-0.375" style="font-size: 5.2px; font-family: 'Linux Biolinum O'">d</tspan>
       <tspan x="37.297177" y="-0.375" style="font-size: 5.2px; font-family: 'Linux Biolinum O'">r</tspan>
       <tspan x="39.138745" y="-0.375" style="font-size: 5.2px; font-family: 'Linux Biolinum O'">i</tspan>
       <tspan x="40.4875" y="-0.375" style="font-size: 5.2px; font-family: 'Linux Biolinum O'">v</tspan>
       <tspan x="42.884137" y="-0.375" style="font-size: 5.2px; font-family: 'Linux Biolinum O'">e</tspan>
      </text>
     </g>
    </g>
    <g id="line2d_42">
     <defs>
      <path id="m3d1076a053" d="M -0 2.404163 
L 2.404163 0 
L 0 -2.404163 
L -2.404163 -0 
z
" style="stroke: #8c8c8c; stroke-linejoin: miter"/>
     </defs>
     <g>
      <use xlink:href="#m3d1076a053" x="92.656" y="5.6288" style="fill: #8c8c8c; stroke: #8c8c8c; stroke-linejoin: miter"/>
     </g>
    </g>
    <g id="text_38">
     <!-- $k{=}8$, after compliant recovery -->
     <g transform="translate(98.376 7.4488)">
      <text>
       <tspan x="0" y="-0.375" style="font-style: italic; font-size: 5.2px; font-family: 'Linux Biolinum O'">k</tspan>
       <tspan x="3.17684" y="-0.375" style="font-size: 5.2px; font-family: 'Linux Biolinum O'">=</tspan>
       <tspan x="6.690869" y="-0.375" style="font-size: 5.2px; font-family: 'Linux Biolinum O'">8</tspan>
       <tspan x="9.103055" y="-0.375" style="font-size: 5.2px; font-family: 'Linux Biolinum O'">,</tspan>
       <tspan x="10.244305" y="-0.375" style="font-size: 5.2px; font-family: 'Linux Biolinum O'"> </tspan>
       <tspan x="11.54118" y="-0.375" style="font-size: 5.2px; font-family: 'Linux Biolinum O'">a</tspan>
       <tspan x="14.036374" y="-0.375" style="font-size: 5.2px; font-family: 'Linux Biolinum O'">f</tspan>
       <tspan x="15.66525" y="-0.375" style="font-size: 5.2px; font-family: 'Linux Biolinum O'">t</tspan>
       <tspan x="17.428998" y="-0.375" style="font-size: 5.2px; font-family: 'Linux Biolinum O'">e</tspan>
       <tspan x="19.778943" y="-0.375" style="font-size: 5.2px; font-family: 'Linux Biolinum O'">r</tspan>
       <tspan x="21.620511" y="-0.375" style="font-size: 5.2px; font-family: 'Linux Biolinum O'"> </tspan>
       <tspan x="22.917386" y="-0.375" style="font-size: 5.2px; font-family: 'Linux Biolinum O'">c</tspan>
       <tspan x="25.142834" y="-0.375" style="font-size: 5.2px; font-family: 'Linux Biolinum O'">o</tspan>
       <tspan x="27.736584" y="-0.375" style="font-size: 5.2px; font-family: 'Linux Biolinum O'">m</tspan>
       <tspan x="31.92291" y="-0.375" style="font-size: 5.2px; font-family: 'Linux Biolinum O'">p</tspan>
       <tspan x="34.635983" y="-0.375" style="font-size: 5.2px; font-family: 'Linux Biolinum O'">l</tspan>
       <tspan x="35.943234" y="-0.375" style="font-size: 5.2px; font-family: 'Linux Biolinum O'">i</tspan>
       <tspan x="37.291989" y="-0.375" style="font-size: 5.2px; font-family: 'Linux Biolinum O'">a</tspan>
       <tspan x="39.787183" y="-0.375" style="font-size: 5.2px; font-family: 'Linux Biolinum O'">n</tspan>
       <tspan x="42.583249" y="-0.375" style="font-size: 5.2px; font-family: 'Linux Biolinum O'">t</tspan>
       <tspan x="44.346997" y="-0.375" style="font-size: 5.2px; font-family: 'Linux Biolinum O'"> </tspan>
       <tspan x="45.643872" y="-0.375" style="font-size: 5.2px; font-family: 'Linux Biolinum O'">r</tspan>
       <tspan x="47.48544" y="-0.375" style="font-size: 5.2px; font-family: 'Linux Biolinum O'">e</tspan>
       <tspan x="49.835385" y="-0.375" style="font-size: 5.2px; font-family: 'Linux Biolinum O'">c</tspan>
       <tspan x="52.060834" y="-0.375" style="font-size: 5.2px; font-family: 'Linux Biolinum O'">o</tspan>
       <tspan x="54.654584" y="-0.375" style="font-size: 5.2px; font-family: 'Linux Biolinum O'">v</tspan>
       <tspan x="57.051221" y="-0.375" style="font-size: 5.2px; font-family: 'Linux Biolinum O'">e</tspan>
       <tspan x="59.401166" y="-0.375" style="font-size: 5.2px; font-family: 'Linux Biolinum O'">r</tspan>
       <tspan x="61.242734" y="-0.375" style="font-size: 5.2px; font-family: 'Linux Biolinum O'">y</tspan>
      </text>
     </g>
    </g>
   </g>
  </g>
 </g>
 <defs>
  <clipPath id="p10f8e236cd">
   <rect x="90.2155" y="11.848" width="164.61" height="127.512"/>
  </clipPath>
 </defs>
</svg>
