<?xml version="1.0" encoding="utf-8" standalone="no"?>
<!DOCTYPE svg PUBLIC "-//W3C//DTD SVG 1.1//EN"
  "http://www.w3.org/Graphics/SVG/1.1/DTD/svg11.dtd">
<svg xmlns:xlink="http://www.w3.org/1999/xlink" width="237.1528pt" height="91.491491pt" viewBox="0 0 237.1528 91.491491" xmlns="http://www.w3.org/2000/svg" version="1.1">
 <metadata>
  <rdf:RDF xmlns:dc="http://purl.org/dc/elements/1.1/" xmlns:cc="http://creativecommons.org/ns#" xmlns:rdf="http://www.w3.org/1999/02/22-rdf-syntax-ns#">
   <cc:Work>
    <dc:type rdf:resource="http://purl.org/dc/dcmitype/StillImage"/>
    <dc:date>2026-10-09T13:28:41.105967</dc:date>
    <dc:format>image/svg+xml</dc:format>
    <dc:creator>
     <cc:Agent>
      <dc:title>Matplotlib v3.9.4, https://matplotlib.org/</dc:title>
     </cc:Agent>
    </dc:creator>
   </cc:Work>
  </rdf:RDF>
 </metadata>
 <defs>
  <style type="text/css">*{stroke-linejoin: round; stroke-linecap: butt}</style>
 </defs>
 <g id="figure_1">
  <g id="patch_1">
   <path d="M 0 91.491491 
L 237.1528 91.491491 
L 237.1528 0 
L 0 0 
z
" style="fill: #ffffff"/>
  </g>
  <g id="axes_1">
   <g id="patch_2">
    <path d="M 15.94 74.109381 
L 109.369153 74.109381 
L 109.369153 8.675781 
L 15.94 8.675781 
z
" style="fill: #ffffff"/>
   </g>
   <g id="matplotlib.axis_1">
    <g id="xtick_1">
     <g id="line2d_1">
      <defs>
       <path id="mf9f9131ec8" d="M 0 0 
L 0 2 
" style="stroke: #555555; stroke-width: 0.5"/>
      </defs>
      <g>
       <use xlink:href="#mf9f9131ec8" x="21.130508" y="74.109381" style="fill: #555555; stroke: #555555; stroke-width: 0.5"/>
      </g>
     </g>
     <g id="text_1">
      <text style="fill: #333333; font: 6px 'Linux Biolinum O'; text-anchor: middle" x="21.130508" y="81.797194" transform="rotate(-0 21.130508 81.797194)">0</text>
     </g>
    </g>
    <g id="xtick_2">
     <g id="line2d_2">
      <g>
       <use xlink:href="#mf9f9131ec8" x="41.892542" y="74.109381" style="fill: #555555; stroke: #555555; stroke-width: 0.5"/>
      </g>
     </g>
     <g id="text_2">
      <text style="fill: #333333; font: 6px 'Linux Biolinum O'; text-anchor: middle" x="41.892542" y="81.797194" transform="rotate(-0 41.892542 81.797194)">1</text>
     </g>
    </g>
    <g id="xtick_3">
     <g id="line2d_3">
      <g>
       <use xlink:href="#mf9f9131ec8" x="62.654576" y="74.109381" style="fill: #555555; stroke: #555555; stroke-width: 0.5"/>
      </g>
     </g>
     <g id="text_3">
      <text style="fill: #333333; font: 6px 'Linux Biolinum O'; text-anchor: middle" x="62.654576" y="81.797194" transform="rotate(-0 62.654576 81.797194)">2</text>
     </g>
    </g>
    <g id="xtick_4">
     <g id="line2d_4">
      <g>
       <use xlink:href="#mf9f9131ec8" x="83.41661" y="74.109381" style="fill: #555555; stroke: #555555; stroke-width: 0.5"/>
      </g>
     </g>
     <g id="text_4">
      <text style="fill: #333333; font: 6px 'Linux Biolinum O'; text-anchor: middle" x="83.41661" y="81.797194" transform="rotate(-0 83.41661 81.797194)">3</text>
     </g>
    </g>
    <g id="xtick_5">
     <g id="line2d_5">
      <g>
       <use xlink:href="#mf9f9131ec8" x="104.178644" y="74.109381" style="fill: #555555; stroke: #555555; stroke-width: 0.5"/>
      </g>
     </g>
     <g id="text_5">
      <text style="fill: #333333; font: 6px 'Linux Biolinum O'; text-anchor: middle" x="104.178644" y="81.797194" transform="rotate(-0 104.178644 81.797194)">4</text>
     </g>
    </g>
    <g id="text_6">
     <!-- Iteration $k$ -->
     <g style="fill: #333333" transform="translate(48.744576 89.243991)">
      <text>
       <tspan style="font: 6.5px 'Linux Biolinum O'" x="0 1.910995 4.120987 7.065475 9.372971 12.499466 14.709457 16.39946 19.64946 23.152954" y="-0.109375">Iteration </tspan>
       <tspan style="font: italic 6.5px 'Linux Biolinum O'" x="24.777954" y="-0.109375">k</tspan>
      </text>
     </g>
    </g>
   </g>
   <g id="matplotlib.axis_2">
    <g id="ytick_1">
     <g id="line2d_6">
      <path d="M 15.94 74.109381 
L 109.369153 74.109381 
" clip-path="url(#pcecc6d03c0)" style="fill: none; stroke: #e9e9e9; stroke-width: 0.4; stroke-linecap: square"/>
     </g>
     <g id="line2d_7">
      <defs>
       <path id="mffb5b15595" d="M 0 0 
L -2 0 
" style="stroke: #555555; stroke-width: 0.5"/>
      </defs>
      <g>
       <use xlink:href="#mffb5b15595" x="15.94" y="74.109381" style="fill: #555555; stroke: #555555; stroke-width: 0.5"/>
      </g>
     </g>
     <g id="text_7">
      <text style="fill: #333333; font: 6px 'Linux Biolinum O'; text-anchor: end" x="12.44" y="76.203288" transform="rotate(-0 12.44 76.203288)">0</text>
     </g>
    </g>
    <g id="ytick_2">
     <g id="line2d_8">
      <path d="M 15.94 41.392581 
L 109.369153 41.392581 
" clip-path="url(#pcecc6d03c0)" style="fill: none; stroke: #e9e9e9; stroke-width: 0.4; stroke-linecap: square"/>
     </g>
     <g id="line2d_9">
      <g>
       <use xlink:href="#mffb5b15595" x="15.94" y="41.392581" style="fill: #555555; stroke: #555555; stroke-width: 0.5"/>
      </g>
     </g>
     <g id="text_8">
      <text style="fill: #333333; font: 6px 'Linux Biolinum O'; text-anchor: end" x="12.44" y="43.486487" transform="rotate(-0 12.44 43.486487)">.5</text>
     </g>
    </g>
    <g id="ytick_3">
     <g id="line2d_10">
      <path d="M 15.94 8.675781 
L 109.369153 8.675781 
" clip-path="url(#pcecc6d03c0)" style="fill: none; stroke: #e9e9e9; stroke-width: 0.4; stroke-linecap: square"/>
     </g>
     <g id="line2d_11">
      <g>
       <use xlink:href="#mffb5b15595" x="15.94" y="8.675781" style="fill: #555555; stroke: #555555; stroke-width: 0.5"/>
      </g>
     </g>
     <g id="text_9">
      <text style="fill: #333333; font: 6px 'Linux Biolinum O'; text-anchor: end" x="12.44" y="10.769688" transform="rotate(-0 12.44 10.769688)">1</text>
     </g>
    </g>
    <g id="text_10">
     <!-- Dissimilarity to $D_0$ -->
     <g style="fill: #333333" transform="translate(5.27 66.287581) rotate(-90)">
      <text>
       <tspan style="font: 6.5px 'Linux Biolinum O'" x="0 4.61499 6.304993 8.878983 11.452972 13.142975 18.388474 20.078476 21.716476 24.842972 27.150467 28.840469 31.050461 34.339462 35.964462 38.174454 41.424454" y="-0.109375">Dissimilarity to </tspan>
       <tspan style="font: italic 6.5px 'Linux Biolinum O'" x="43.049454" y="-0.109375">D</tspan>
       <tspan style="font: 4.55px 'Linux Biolinum O'" x="47.482452" y="0.7999999999999998">0</tspan>
      </text>
     </g>
    </g>
   </g>
   <g id="line2d_12">
    <path d="M 51.235458 49.244613 
L 61.616475 49.244613 
" clip-path="url(#pcecc6d03c0)" style="fill: none; stroke: #882255; stroke-width: 1.1; stroke-linecap: square"/>
    <defs>
     <path id="mb5189299a2" d="M 0 1.15 
C 0.304984 1.15 0.597517 1.028829 0.813173 0.813173 
C 1.028829 0.597517 1.15 0.304984 1.15 0 
C 1.15 -0.304984 1.028829 -0.597517 0.813173 -0.813173 
C 0.597517 -1.028829 0.304984 -1.15 0 -1.15 
C -0.304984 -1.15 -0.597517 -1.028829 -0.813173 -0.813173 
C -1.028829 -0.597517 -1.15 -0.304984 -1.15 0 
C -1.15 0.304984 -1.028829 0.597517 -0.813173 0.813173 
C -0.597517 1.028829 -0.304984 1.15 0 1.15 
z
" style="stroke: #ffffff; stroke-width: 0.35"/>
    </defs>
    <g clip-path="url(#pcecc6d03c0)">
     <use xlink:href="#mb5189299a2" x="61.616475" y="49.244613" style="fill: #882255; stroke: #ffffff; stroke-width: 0.35"/>
    </g>
   </g>
   <g id="line2d_13">
    <path d="M 51.235458 57.096645 
L 61.616475 57.096645 
" clip-path="url(#pcecc6d03c0)" style="fill: none; stroke: #8c8c8c; stroke-width: 1.1; stroke-linecap: square"/>
    <defs>
     <path id="mfd042e97a9" d="M 0 1.15 
C 0.304984 1.15 0.597517 1.028829 0.813173 0.813173 
C 1.028829 0.597517 1.15 0.304984 1.15 0 
C 1.15 -0.304984 1.028829 -0.597517 0.813173 -0.813173 
C 0.597517 -1.028829 0.304984 -1.15 0 -1.15 
C -0.304984 -1.15 -0.597517 -1.028829 -0.813173 -0.813173 
C -1.028829 -0.597517 -1.15 -0.304984 -1.15 0 
C -1.15 0.304984 -1.028829 0.597517 -0.813173 0.813173 
C -0.597517 1.028829 -0.304984 1.15 0 1.15 
z
" style="stroke: #ffffff; stroke-width: 0.35"/>
    </defs>
    <g clip-path="url(#pcecc6d03c0)">
     <use xlink:href="#mfd042e97a9" x="61.616475" y="57.096645" style="fill: #8c8c8c; stroke: #ffffff; stroke-width: 0.35"/>
    </g>
   </g>
   <g id="line2d_14">
    <path d="M 51.235458 64.948677 
L 61.616475 64.948677 
" clip-path="url(#pcecc6d03c0)" style="fill: none; stroke: #1a1a1a; stroke-width: 1.1; stroke-linecap: square"/>
    <defs>
     <path id="m593e3741dc" d="M 0 1.15 
C 0.304984 1.15 0.597517 1.028829 0.813173 0.813173 
C 1.028829 0.597517 1.15 0.304984 1.15 0 
C 1.15 -0.304984 1.028829 -0.597517 0.813173 -0.813173 
C 0.597517 -1.028829 0.304984 -1.15 0 -1.15 
C -0.304984 -1.15 -0.597517 -1.028829 -0.813173 -0.813173 
C -1.028829 -0.597517 -1.15 -0.304984 -1.15 0 
C -1.15 0.304984 -1.028829 0.597517 -0.813173 0.813173 
C -0.597517 1.028829 -0.304984 1.15 0 1.15 
z
" style="stroke: #ffffff; stroke-width: 0.35"/>
    </defs>
    <g clip-path="url(#pcecc6d03c0)">
     <use xlink:href="#m593e3741dc" x="61.616475" y="64.948677" style="fill: #1a1a1a; stroke: #ffffff; stroke-width: 0.35"/>
    </g>
   </g>
   <g id="patch_3">
    <path d="M 15.94 74.109381 
L 15.94 8.675781 
" style="fill: none; stroke: #555555; stroke-width: 0.5; stroke-linejoin: miter; stroke-linecap: square"/>
   </g>
   <g id="patch_4">
    <path d="M 15.94 74.109381 
L 109.369153 74.109381 
" style="fill: none; stroke: #555555; stroke-width: 0.5; stroke-linejoin: miter; stroke-linecap: square"/>
   </g>
   <g id="line2d_15">
    <path d="M 21.130508 74.109381 
L 41.892542 29.136894 
L 62.654576 22.294665 
L 83.41661 18.877652 
L 104.178644 17.265557 
" clip-path="url(#pcecc6d03c0)" style="fill: none; stroke: #1a1a1a; stroke-linecap: square"/>
    <g clip-path="url(#pcecc6d03c0)">
     <use xlink:href="#m593e3741dc" x="21.130508" y="74.109381" style="fill: #1a1a1a; stroke: #ffffff; stroke-width: 0.35"/>
     <use xlink:href="#m593e3741dc" x="41.892542" y="29.136894" style="fill: #1a1a1a; stroke: #ffffff; stroke-width: 0.35"/>
     <use xlink:href="#m593e3741dc" x="62.654576" y="22.294665" style="fill: #1a1a1a; stroke: #ffffff; stroke-width: 0.35"/>
     <use xlink:href="#m593e3741dc" x="83.41661" y="18.877652" style="fill: #1a1a1a; stroke: #ffffff; stroke-width: 0.35"/>
     <use xlink:href="#m593e3741dc" x="104.178644" y="17.265557" style="fill: #1a1a1a; stroke: #ffffff; stroke-width: 0.35"/>
    </g>
   </g>
   <g id="line2d_16">
    <path d="M 21.130508 74.109381 
L 41.892542 30.533848 
L 62.654576 21.992604 
L 83.41661 19.563066 
L 104.178644 17.318984 
" clip-path="url(#pcecc6d03c0)" style="fill: none; stroke: #8c8c8c; stroke-linecap: square"/>
    <g clip-path="url(#pcecc6d03c0)">
     <use xlink:href="#mfd042e97a9" x="21.130508" y="74.109381" style="fill: #8c8c8c; stroke: #ffffff; stroke-width: 0.35"/>
     <use xlink:href="#mfd042e97a9" x="41.892542" y="30.533848" style="fill: #8c8c8c; stroke: #ffffff; stroke-width: 0.35"/>
     <use xlink:href="#mfd042e97a9" x="62.654576" y="21.992604" style="fill: #8c8c8c; stroke: #ffffff; stroke-width: 0.35"/>
     <use xlink:href="#mfd042e97a9" x="83.41661" y="19.563066" style="fill: #8c8c8c; stroke: #ffffff; stroke-width: 0.35"/>
     <use xlink:href="#mfd042e97a9" x="104.178644" y="17.318984" style="fill: #8c8c8c; stroke: #ffffff; stroke-width: 0.35"/>
    </g>
   </g>
   <g id="line2d_17">
    <path d="M 21.130508 74.109381 
L 41.892542 26.905383 
L 62.654576 20.996891 
L 83.41661 17.78924 
L 104.178644 16.114024 
" clip-path="url(#pcecc6d03c0)" style="fill: none; stroke: #882255; stroke-linecap: square"/>
    <g clip-path="url(#pcecc6d03c0)">
     <use xlink:href="#mb5189299a2" x="21.130508" y="74.109381" style="fill: #882255; stroke: #ffffff; stroke-width: 0.35"/>
     <use xlink:href="#mb5189299a2" x="41.892542" y="26.905383" style="fill: #882255; stroke: #ffffff; stroke-width: 0.35"/>
     <use xlink:href="#mb5189299a2" x="62.654576" y="20.996891" style="fill: #882255; stroke: #ffffff; stroke-width: 0.35"/>
     <use xlink:href="#mb5189299a2" x="83.41661" y="17.78924" style="fill: #882255; stroke: #ffffff; stroke-width: 0.35"/>
     <use xlink:href="#mb5189299a2" x="104.178644" y="16.114024" style="fill: #882255; stroke: #ffffff; stroke-width: 0.35"/>
    </g>
   </g>
   <g id="text_11">
    <text style="fill: #4d4d4d; font: 6px 'Linux Biolinum O'" transform="translate(83.868644 29.87633)">all three</text>
    <text style="fill: #4d4d4d; font: 6px 'Linux Biolinum O'" transform="translate(82.321769 35.474142)">personas</text>
   </g>
   <g id="text_12">
    <text style="fill: #882255; font: 6px 'Linux Biolinum O'; text-anchor: start" x="64.73078" y="50.633519" transform="rotate(-0 64.73078 50.633519)">Sci-fi</text>
   </g>
   <g id="text_13">
    <text style="fill: #6b6b6b; font: 6px 'Linux Biolinum O'; text-anchor: start" x="64.73078" y="58.485551" transform="rotate(-0 64.73078 58.485551)">Business</text>
   </g>
   <g id="text_14">
    <text style="fill: #1a1a1a; font: 6px 'Linux Biolinum O'; text-anchor: start" x="64.73078" y="66.337583" transform="rotate(-0 64.73078 66.337583)">Adversarial</text>
   </g>
   <g id="text_15">
    <text style="fill: #1a1a1a; font: 700 7px 'Linux Biolinum O'; text-anchor: start" x="15.94" y="5.675781" transform="rotate(-0 15.94 5.675781)">(a) Identity document</text>
   </g>
  </g>
  <g id="axes_2">
   <g id="patch_5">
    <path d="M 143.003647 74.109381 
L 236.4328 74.109381 
L 236.4328 8.675781 
L 143.003647 8.675781 
z
" style="fill: #ffffff"/>
   </g>
   <g id="matplotlib.axis_3">
    <g id="xtick_6">
     <g id="line2d_18">
      <g>
       <use xlink:href="#mf9f9131ec8" x="148.194156" y="74.109381" style="fill: #555555; stroke: #555555; stroke-width: 0.5"/>
      </g>
     </g>
     <g id="text_16">
      <text style="fill: #333333; font: 6px 'Linux Biolinum O'; text-anchor: middle" x="148.194156" y="81.797194" transform="rotate(-0 148.194156 81.797194)">0</text>
     </g>
    </g>
    <g id="xtick_7">
     <g id="line2d_19">
      <g>
       <use xlink:href="#mf9f9131ec8" x="168.95619" y="74.109381" style="fill: #555555; stroke: #555555; stroke-width: 0.5"/>
      </g>
     </g>
     <g id="text_17">
      <text style="fill: #333333; font: 6px 'Linux Biolinum O'; text-anchor: middle" x="168.95619" y="81.797194" transform="rotate(-0 168.95619 81.797194)">1</text>
     </g>
    </g>
    <g id="xtick_8">
     <g id="line2d_20">
      <g>
       <use xlink:href="#mf9f9131ec8" x="189.718224" y="74.109381" style="fill: #555555; stroke: #555555; stroke-width: 0.5"/>
      </g>
     </g>
     <g id="text_18">
      <text style="fill: #333333; font: 6px 'Linux Biolinum O'; text-anchor: middle" x="189.718224" y="81.797194" transform="rotate(-0 189.718224 81.797194)">2</text>
     </g>
    </g>
    <g id="xtick_9">
     <g id="line2d_21">
      <g>
       <use xlink:href="#mf9f9131ec8" x="210.480258" y="74.109381" style="fill: #555555; stroke: #555555; stroke-width: 0.5"/>
      </g>
     </g>
     <g id="text_19">
      <text style="fill: #333333; font: 6px 'Linux Biolinum O'; text-anchor: middle" x="210.480258" y="81.797194" transform="rotate(-0 210.480258 81.797194)">3</text>
     </g>
    </g>
    <g id="xtick_10">
     <g id="line2d_22">
      <g>
       <use xlink:href="#mf9f9131ec8" x="231.242292" y="74.109381" style="fill: #555555; stroke: #555555; stroke-width: 0.5"/>
      </g>
     </g>
     <g id="text_20">
      <text style="fill: #333333; font: 6px 'Linux Biolinum O'; text-anchor: middle" x="231.242292" y="81.797194" transform="rotate(-0 231.242292 81.797194)">4</text>
     </g>
    </g>
    <g id="text_21">
     <!-- Iteration $k$ -->
     <g style="fill: #333333" transform="translate(175.808224 89.243991)">
      <text>
       <tspan style="font: 6.5px 'Linux Biolinum O'" x="0 1.910995 4.120987 7.065475 9.372971 12.499466 14.709457 16.39946 19.64946 23.152954" y="-0.109375">Iteration </tspan>
       <tspan style="font: italic 6.5px 'Linux Biolinum O'" x="24.777954" y="-0.109375">k</tspan>
      </text>
     </g>
    </g>
   </g>
   <g id="matplotlib.axis_4">
    <g id="ytick_4">
     <g id="line2d_23">
      <path d="M 143.003647 69.747141 
L 236.4328 69.747141 
" clip-path="url(#pdef47d380f)" style="fill: none; stroke: #e9e9e9; stroke-width: 0.4; stroke-linecap: square"/>
     </g>
     <g id="line2d_24">
      <g>
       <use xlink:href="#mffb5b15595" x="143.003647" y="69.747141" style="fill: #555555; stroke: #555555; stroke-width: 0.5"/>
      </g>
     </g>
     <g id="text_22">
      <text style="fill: #333333; font: 6px 'Linux Biolinum O'; text-anchor: end" x="139.503647" y="71.841048" transform="rotate(-0 139.503647 71.841048)">−.2</text>
     </g>
    </g>
    <g id="ytick_5">
     <g id="line2d_25">
      <path d="M 143.003647 47.935941 
L 236.4328 47.935941 
" clip-path="url(#pdef47d380f)" style="fill: none; stroke: #e9e9e9; stroke-width: 0.4; stroke-linecap: square"/>
     </g>
     <g id="line2d_26">
      <g>
       <use xlink:href="#mffb5b15595" x="143.003647" y="47.935941" style="fill: #555555; stroke: #555555; stroke-width: 0.5"/>
      </g>
     </g>
     <g id="text_23">
      <text style="fill: #333333; font: 6px 'Linux Biolinum O'; text-anchor: end" x="139.503647" y="50.029848" transform="rotate(-0 139.503647 50.029848)">0</text>
     </g>
    </g>
    <g id="ytick_6">
     <g id="line2d_27">
      <path d="M 143.003647 26.124741 
L 236.4328 26.124741 
" clip-path="url(#pdef47d380f)" style="fill: none; stroke: #e9e9e9; stroke-width: 0.4; stroke-linecap: square"/>
     </g>
     <g id="line2d_28">
      <g>
       <use xlink:href="#mffb5b15595" x="143.003647" y="26.124741" style="fill: #555555; stroke: #555555; stroke-width: 0.5"/>
      </g>
     </g>
     <g id="text_24">
      <text style="fill: #333333; font: 6px 'Linux Biolinum O'; text-anchor: end" x="139.503647" y="28.218648" transform="rotate(-0 139.503647 28.218648)">+.2</text>
     </g>
    </g>
    <g id="text_25">
     <!-- $\Delta$ cluster index ↑ -->
     <g style="fill: #333333" transform="translate(129.20396 63.590081) rotate(-90)">
      <text>
       <tspan style="font: 6.5px 'Linux Biolinum O'" x="0 4.134003 5.759003 8.547501 10.185501 13.675995 16.249985 18.459976 21.404465 23.71196 25.33696 27.026962 30.530457 33.975449 36.919937 39.877426 41.502426" y="-0.515625">Δ cluster index ↑</tspan>
      </text>
     </g>
    </g>
   </g>
   <g id="PolyCollection_1">
    <defs>
     <path id="m6ad655c582" d="M 148.194156 -47.059672 
L 148.194156 -39.710626 
L 168.95619 -24.330934 
L 189.718224 -23.282319 
L 210.480258 -23.631857 
L 231.242292 -23.282319 
L 231.242292 -32.02078 
L 231.242292 -32.02078 
L 210.480258 -34.118011 
L 189.718224 -35.516165 
L 168.95619 -47.409211 
L 148.194156 -47.059672 
z
"/>
    </defs>
    <g clip-path="url(#pdef47d380f)">
     <use xlink:href="#m6ad655c582" x="0" y="91.491491" style="fill: #1a1a1a; fill-opacity: 0.15"/>
    </g>
   </g>
   <g id="PolyCollection_2">
    <defs>
     <path id="m7a880c10f4" d="M 148.194156 -45.65278 
L 148.194156 -41.807857 
L 168.95619 -28.175857 
L 189.718224 -29.923549 
L 210.480258 -29.565272 
L 231.242292 -31.321703 
L 231.242292 -36.56478 
L 231.242292 -36.56478 
L 210.480258 -38.662011 
L 189.718224 -37.962934 
L 168.95619 -34.118011 
L 148.194156 -45.65278 
z
"/>
    </defs>
    <g clip-path="url(#pdef47d380f)">
     <use xlink:href="#m7a880c10f4" x="0" y="91.491491" style="fill: #8c8c8c; fill-opacity: 0.15"/>
    </g>
   </g>
   <g id="PolyCollection_3">
    <defs>
     <path id="mf28a32598b" d="M 148.194156 -47.050934 
L 148.194156 -40.409703 
L 168.95619 -40.051426 
L 189.718224 -44.604165 
L 210.480258 -34.467549 
L 231.242292 -40.409703 
L 231.242292 -71.876903 
L 231.242292 -71.876903 
L 210.480258 -67.673703 
L 189.718224 -79.558011 
L 168.95619 -68.722319 
L 148.194156 -47.050934 
z
"/>
    </defs>
    <g clip-path="url(#pdef47d380f)">
     <use xlink:href="#mf28a32598b" x="0" y="91.491491" style="fill: #882255; fill-opacity: 0.15"/>
    </g>
   </g>
   <g id="line2d_29">
    <path d="M 143.003647 47.935941 
L 236.4328 47.935941 
" clip-path="url(#pdef47d380f)" style="fill: none; stroke: #555555; stroke-width: 0.5; stroke-linecap: square"/>
   </g>
   <g id="patch_6">
    <path d="M 143.003647 74.109381 
L 143.003647 8.675781 
" style="fill: none; stroke: #555555; stroke-width: 0.5; stroke-linejoin: miter; stroke-linecap: square"/>
   </g>
   <g id="patch_7">
    <path d="M 143.003647 74.109381 
L 236.4328 74.109381 
" style="fill: none; stroke: #555555; stroke-width: 0.5; stroke-linejoin: miter; stroke-linecap: square"/>
   </g>
   <g id="line2d_30">
    <path d="M 148.194156 47.935941 
L 168.95619 57.023941 
L 189.718224 62.267018 
L 210.480258 62.616557 
L 231.242292 64.364249 
" clip-path="url(#pdef47d380f)" style="fill: none; stroke: #1a1a1a; stroke-width: 1.1; stroke-linecap: square"/>
    <defs>
     <path id="mee94dc1576" d="M 0 1.3 
C 0.344764 1.3 0.675454 1.163024 0.919239 0.919239 
C 1.163024 0.675454 1.3 0.344764 1.3 0 
C 1.3 -0.344764 1.163024 -0.675454 0.919239 -0.919239 
C 0.675454 -1.163024 0.344764 -1.3 0 -1.3 
C -0.344764 -1.3 -0.675454 -1.163024 -0.919239 -0.919239 
C -1.163024 -0.675454 -1.3 -0.344764 -1.3 0 
C -1.3 0.344764 -1.163024 0.675454 -0.919239 0.919239 
C -0.675454 1.163024 -0.344764 1.3 0 1.3 
z
" style="stroke: #ffffff; stroke-width: 0.4"/>
    </defs>
    <g clip-path="url(#pdef47d380f)">
     <use xlink:href="#mee94dc1576" x="148.194156" y="47.935941" style="fill: #1a1a1a; stroke: #ffffff; stroke-width: 0.4"/>
     <use xlink:href="#mee94dc1576" x="168.95619" y="57.023941" style="fill: #1a1a1a; stroke: #ffffff; stroke-width: 0.4"/>
     <use xlink:href="#mee94dc1576" x="189.718224" y="62.267018" style="fill: #1a1a1a; stroke: #ffffff; stroke-width: 0.4"/>
     <use xlink:href="#mee94dc1576" x="210.480258" y="62.616557" style="fill: #1a1a1a; stroke: #ffffff; stroke-width: 0.4"/>
     <use xlink:href="#mee94dc1576" x="231.242292" y="64.364249" style="fill: #1a1a1a; stroke: #ffffff; stroke-width: 0.4"/>
    </g>
   </g>
   <g id="line2d_31">
    <path d="M 148.194156 47.935941 
L 168.95619 60.169787 
L 189.718224 57.37348 
L 210.480258 57.37348 
L 231.242292 57.37348 
" clip-path="url(#pdef47d380f)" style="fill: none; stroke: #8c8c8c; stroke-width: 1.1; stroke-linecap: square"/>
    <defs>
     <path id="m57436197ec" d="M 0 1.3 
C 0.344764 1.3 0.675454 1.163024 0.919239 0.919239 
C 1.163024 0.675454 1.3 0.344764 1.3 0 
C 1.3 -0.344764 1.163024 -0.675454 0.919239 -0.919239 
C 0.675454 -1.163024 0.344764 -1.3 0 -1.3 
C -0.344764 -1.3 -0.675454 -1.163024 -0.919239 -0.919239 
C -1.163024 -0.675454 -1.3 -0.344764 -1.3 0 
C -1.3 0.344764 -1.163024 0.675454 -0.919239 0.919239 
C -0.675454 1.163024 -0.344764 1.3 0 1.3 
z
" style="stroke: #ffffff; stroke-width: 0.4"/>
    </defs>
    <g clip-path="url(#pdef47d380f)">
     <use xlink:href="#m57436197ec" x="148.194156" y="47.935941" style="fill: #8c8c8c; stroke: #ffffff; stroke-width: 0.4"/>
     <use xlink:href="#m57436197ec" x="168.95619" y="60.169787" style="fill: #8c8c8c; stroke: #ffffff; stroke-width: 0.4"/>
     <use xlink:href="#m57436197ec" x="189.718224" y="57.37348" style="fill: #8c8c8c; stroke: #ffffff; stroke-width: 0.4"/>
     <use xlink:href="#m57436197ec" x="210.480258" y="57.37348" style="fill: #8c8c8c; stroke: #ffffff; stroke-width: 0.4"/>
     <use xlink:href="#m57436197ec" x="231.242292" y="57.37348" style="fill: #8c8c8c; stroke: #ffffff; stroke-width: 0.4"/>
    </g>
   </g>
   <g id="line2d_32">
    <path d="M 148.194156 47.935941 
L 168.95619 37.449787 
L 189.718224 30.10948 
L 210.480258 40.945172 
L 231.242292 36.051634 
" clip-path="url(#pdef47d380f)" style="fill: none; stroke: #882255; stroke-width: 1.1; stroke-linecap: square"/>
    <defs>
     <path id="m8e78329d96" d="M 0 1.3 
C 0.344764 1.3 0.675454 1.163024 0.919239 0.919239 
C 1.163024 0.675454 1.3 0.344764 1.3 0 
C 1.3 -0.344764 1.163024 -0.675454 0.919239 -0.919239 
C 0.675454 -1.163024 0.344764 -1.3 0 -1.3 
C -0.344764 -1.3 -0.675454 -1.163024 -0.919239 -0.919239 
C -1.163024 -0.675454 -1.3 -0.344764 -1.3 0 
C -1.3 0.344764 -1.163024 0.675454 -0.919239 0.919239 
C -0.675454 1.163024 -0.344764 1.3 0 1.3 
z
" style="stroke: #ffffff; stroke-width: 0.4"/>
    </defs>
    <g clip-path="url(#pdef47d380f)">
     <use xlink:href="#m8e78329d96" x="148.194156" y="47.935941" style="fill: #882255; stroke: #ffffff; stroke-width: 0.4"/>
     <use xlink:href="#m8e78329d96" x="168.95619" y="37.449787" style="fill: #882255; stroke: #ffffff; stroke-width: 0.4"/>
     <use xlink:href="#m8e78329d96" x="189.718224" y="30.10948" style="fill: #882255; stroke: #ffffff; stroke-width: 0.4"/>
     <use xlink:href="#m8e78329d96" x="210.480258" y="40.945172" style="fill: #882255; stroke: #ffffff; stroke-width: 0.4"/>
     <use xlink:href="#m8e78329d96" x="231.242292" y="36.051634" style="fill: #882255; stroke: #ffffff; stroke-width: 0.4"/>
    </g>
   </g>
   <g id="text_26">
    <text style="fill: #1a1a1a; font: 700 7px 'Linux Biolinum O'; text-anchor: start" x="143.003647" y="5.675781" transform="rotate(-0 143.003647 5.675781)">(b) Behavior</text>
   </g>
  </g>
 </g>
 <defs>
  <clipPath id="pcecc6d03c0">
   <rect x="15.94" y="8.675781" width="93.429153" height="65.4336"/>
  </clipPath>
  <clipPath id="pdef47d380f">
   <rect x="143.003647" y="8.675781" width="93.429153" height="65.4336"/>
  </clipPath>
 </defs>
</svg>
